<?xml version="1.0" encoding="UTF-8"?>
<svg width="31px" height="31px" viewBox="0 0 31 31" version="1.1" xmlns="http://www.w3.org/2000/svg" xmlns:xlink="http://www.w3.org/1999/xlink">
    <!-- Generator: Sketch 52.5 (67469) - http://www.bohemiancoding.com/sketch -->
    <title>icn_average_lrg@2x.png</title>
    <desc>Created with Sketch.</desc>
    <g id="Dropdown-Diary" stroke="none" stroke-width="1" fill="none" fill-rule="evenodd">
        <g id="Portrait" transform="translate(-251.000000, -579.000000)" fill="#E9A839">
            <path d="M251,594.12605 C251,602.479412 257.782143,609.252101 266.143067,609.252101 C274.507773,609.252101 281.25021,602.479412 281.25021,594.12605 C281.25021,585.770798 274.507773,579 266.143067,579 C257.782143,579 251,585.770798 251,594.12605 Z M260.451891,587.382353 C261.501261,587.382353 262.346429,588.229412 262.346429,589.273109 C262.346429,590.316807 261.501261,591.163866 260.451891,591.163866 C259.408193,591.163866 258.561134,590.316807 258.561134,589.273109 C258.561134,588.229412 259.408193,587.382353 260.451891,587.382353 L260.451891,587.382353 Z M271.707563,602.006723 L260.363025,602.006723 C259.491387,602.006723 258.786134,601.301471 258.786134,600.429832 C258.786134,599.560084 259.491387,598.854832 260.363025,598.854832 L271.707563,598.854832 C272.577311,598.854832 273.282563,599.560084 273.282563,600.429832 C273.282563,601.301471 272.577311,602.006723 271.707563,602.006723 L271.707563,602.006723 Z M271.796429,591.163866 C270.752731,591.163866 269.905672,590.316807 269.905672,589.273109 C269.905672,588.229412 270.752731,587.382353 271.796429,587.382353 C272.845798,587.382353 273.690966,588.229412 273.690966,589.273109 C273.690966,590.316807 272.845798,591.163866 271.796429,591.163866 L271.796429,591.163866 Z" id="icn_average_lrg@2x.png"></path>
        </g>
    </g>
</svg>