<?xml version="1.0" encoding="UTF-8"?>
<svg width="30px" height="30px" viewBox="0 0 30 30" version="1.1" xmlns="http://www.w3.org/2000/svg" xmlns:xlink="http://www.w3.org/1999/xlink">
    <!-- Generator: Sketch 52.5 (67469) - http://www.bohemiancoding.com/sketch -->
    <title>icn_geolocate@2x.png</title>
    <desc>Created with Sketch.</desc>
    <g id="Dropdown-Diary" stroke="none" stroke-width="1" fill="none" fill-rule="evenodd">
        <g id="Portrait" transform="translate(-149.000000, -507.000000)">
            <g id="icn_geolocate@2x.png" transform="translate(149.000000, 507.000000)">
                <path d="M15.001875,0 C15,0 15.001875,0 15,0 C6.72,0 0.001875,6.71625 0,15 C0,23.28375 6.72,30 15,30 C23.2875,30 30,23.28375 30,15 C30,6.71625 23.2875,0 15.001875,0 L15.001875,0 Z M15,26.25 C8.795625,26.25 3.75,21.204375 3.75,15 C3.751875,8.795625 8.7975,3.75 15.001875,3.75 C21.204375,3.75 26.25,8.795625 26.25,15 C26.25,21.204375 21.204375,26.25 15,26.25 L15,26.25 Z" id="Fill-1" fill="#C6C6C6"></path>
                <path d="M8.37375,21.628125 C8.37375,21.628125 15.001875,20.3025 17.653125,17.65125 C20.30625,15 21.631875,8.371875 21.631875,8.371875 C21.631875,8.371875 15.001875,9.6975 12.350625,12.34875 C9.699375,15 8.37375,21.628125 8.37375,21.628125 L8.37375,21.628125 Z M13.67625,13.674375 C14.409375,12.94125 15.59625,12.94125 16.3275,13.674375 C17.060625,14.4075 17.0625,15.5925 16.3275,16.325625 C15.594375,17.05875 14.409375,17.05875 13.67625,16.325625 C12.943125,15.5925 12.943125,14.4075 13.67625,13.674375 L13.67625,13.674375 Z" id="Fill-2" fill="#CACACA"></path>
            </g>
        </g>
    </g>
</svg>