<?xml version="1.0" encoding="UTF-8"?>
<svg width="30px" height="30px" viewBox="0 0 30 30" version="1.1" xmlns="http://www.w3.org/2000/svg" xmlns:xlink="http://www.w3.org/1999/xlink">
    <!-- Generator: Sketch 52.5 (67469) - http://www.bohemiancoding.com/sketch -->
    <title>icn_good_lrg@2x.png</title>
    <desc>Created with Sketch.</desc>
    <g id="Dropdown-Diary" stroke="none" stroke-width="1" fill="none" fill-rule="evenodd">
        <g id="Portrait" transform="translate(-480.000000, -577.000000)" fill="#FFFFFF">
            <path d="M495.01875,577 C486.7275,577 480,583.714375 480,592 C480,600.28375 486.7275,607 495.01875,607 C503.31375,607 510,600.28375 510,592 C510,583.714375 503.31375,577 495.01875,577 L495.01875,577 Z M489.998002,586 C491.106893,586 492,586.896 492,588 C492,589.106 491.106893,590 489.998002,590 C488.893107,590 488,589.106 488,588 C488,586.896 488.893107,586 489.998002,586 L489.998002,586 Z M500.998002,586 C502.106893,586 503,586.896 503,588 C503,589.106 502.106893,590 500.998002,590 C499.893107,590 499,589.106 499,588 C499,586.896 499.893107,586 500.998002,586 L500.998002,586 Z M495.4924,602 C491.1129,602 486,598 486,594 L505,594 C505,598 499.9232,602 495.4924,602 L495.4924,602 Z" id="icn_good_lrg@2x.png"></path>
        </g>
    </g>
</svg>