<?xml version="1.0" encoding="UTF-8"?>
<svg width="30px" height="30px" viewBox="0 0 30 30" version="1.1" xmlns="http://www.w3.org/2000/svg" xmlns:xlink="http://www.w3.org/1999/xlink">
    <!-- Generator: Sketch 52.5 (67469) - http://www.bohemiancoding.com/sketch -->
    <title>icn_bad_lrg@2x.png</title>
    <desc>Created with Sketch.</desc>
    <g id="Dropdown-Diary" stroke="none" stroke-width="1" fill="none" fill-rule="evenodd">
        <g id="Portrait" transform="translate(-41.000000, -577.000000)" fill="#FFFFFF">
            <path d="M56.01875,577 C47.7275,577 41,583.714375 41,592 C41,600.28375 47.7275,607 56.01875,607 C64.31375,607 71,600.28375 71,592 C71,583.714375 64.31375,577 56.01875,577 L56.01875,577 Z M61.625,586.375 C62.665625,586.375 63.50375,587.215 63.50375,588.25 C63.50375,589.286875 62.665625,590.125 61.625,590.125 C60.588125,590.125 59.75,589.286875 59.75,588.25 C59.75,587.215 60.588125,586.375 61.625,586.375 L61.625,586.375 Z M50.375,586.375 C51.415625,586.375 52.25375,587.215 52.25375,588.25 C52.25375,589.286875 51.415625,590.125 50.375,590.125 C49.338125,590.125 48.5,589.286875 48.5,588.25 C48.5,587.215 49.338125,586.375 50.375,586.375 L50.375,586.375 Z M63.921875,600.338125 C63.785,600.405625 63.6425,600.4375 63.5,600.4375 C63.15875,600.4375 62.826875,600.24625 62.661875,599.92 C62.59625,599.7925 60.933125,596.6875 56.01125,596.6875 C51.070625,596.6875 49.40375,599.7925 49.334375,599.925625 C49.1,600.38125 48.535625,600.56125 48.078125,600.3325 C47.616875,600.098125 47.43125,599.543125 47.661875,599.08 C47.75,598.9075 49.866875,594.8125 56.01125,594.8125 C62.133125,594.8125 64.25,598.9075 64.338125,599.08 C64.56875,599.543125 64.383125,600.105625 63.921875,600.338125 L63.921875,600.338125 Z" id="icn_bad_lrg@2x.png"></path>
        </g>
    </g>
</svg>