<?xml version="1.0" encoding="utf-8"?>
<!-- Generator: Adobe Illustrator 23.0.1, SVG Export Plug-In . SVG Version: 6.00 Build 0)  -->
<svg version="1.1" id="Layer_1" xmlns="http://www.w3.org/2000/svg" xmlns:xlink="http://www.w3.org/1999/xlink" x="0px" y="0px"
	 viewBox="0 0 640 67" style="enable-background:new 0 0 640 67;" xml:space="preserve">
<style type="text/css">
	.st0{fill-rule:evenodd;clip-rule:evenodd;fill:#E06060;}
	.st1{fill-rule:evenodd;clip-rule:evenodd;fill:#656565;}
	.st2{fill-rule:evenodd;clip-rule:evenodd;fill:#7E9B5E;}
	.st3{fill:#FFFFFF;}
	.st4{font-family:'HelveticaNeue-Medium';}
	.st5{font-size:20px;}
	.st6{fill-rule:evenodd;clip-rule:evenodd;fill:#FFFFFF;}
</style>
<title>Rating Bar</title>
<desc>Created with Sketch.</desc>
<g id="Dropdown-Diary">
	<g id="Portrait" transform="translate(0.000000, -558.000000)">
		<g id="Rating-Bar" transform="translate(0.000000, 558.000000)">
			<rect id="Rectangle-11" class="st0" width="214" height="67"/>
			<rect x="213" class="st1" width="214" height="67"/>
			<rect x="427" class="st2" width="214" height="67"/>
			<text transform="matrix(1 0 0 1 90 42)" class="st3 st4 st5">Bad</text>
			<text transform="matrix(1 0 0 1 294 42)" class="st3 st4 st5">Average</text>
			<text transform="matrix(1 0 0 1 527 41.9997)" class="st3 st4 st5">Good</text>
		</g>
	</g>
</g>
<g id="Dropdown-Diary_1_">
	<g id="Portrait_1_" transform="translate(-251.000000, -579.000000)">
		<path class="st6" d="M504.2,612.5c0,8.4,6.8,15.1,15.1,15.1c8.4,0,15.1-6.8,15.1-15.1c0-8.4-6.7-15.1-15.1-15.1
			C511,597.4,504.2,604.1,504.2,612.5z M513.7,605.8c1,0,1.9,0.8,1.9,1.9s-0.8,1.9-1.9,1.9c-1,0-1.9-0.8-1.9-1.9
			S512.6,605.8,513.7,605.8L513.7,605.8z M524.9,620.4h-11.3c-0.9,0-1.6-0.7-1.6-1.6c0-0.9,0.7-1.6,1.6-1.6h11.3
			c0.9,0,1.6,0.7,1.6,1.6C526.5,619.7,525.8,620.4,524.9,620.4L524.9,620.4z M525,609.5c-1,0-1.9-0.8-1.9-1.9s0.8-1.9,1.9-1.9
			c1,0,1.9,0.8,1.9,1.9S526.1,609.5,525,609.5L525,609.5z"/>
	</g>
</g>
<g id="Dropdown-Diary_2_">
	<g id="Portrait_2_" transform="translate(-41.000000, -577.000000)">
		<path class="st6" d="M97.2,595.5c-8.3,0-15,6.7-15,15c0,8.3,6.7,15,15,15c8.3,0,15-6.7,15-15C112.2,602.2,105.5,595.5,97.2,595.5
			L97.2,595.5z M102.8,604.9c1,0,1.9,0.8,1.9,1.9c0,1-0.8,1.9-1.9,1.9c-1,0-1.9-0.8-1.9-1.9C101,605.7,101.8,604.9,102.8,604.9
			L102.8,604.9z M91.6,604.9c1,0,1.9,0.8,1.9,1.9c0,1-0.8,1.9-1.9,1.9c-1,0-1.9-0.8-1.9-1.9C89.7,605.7,90.6,604.9,91.6,604.9
			L91.6,604.9z M105.1,618.8c-0.1,0.1-0.3,0.1-0.4,0.1c-0.3,0-0.7-0.2-0.8-0.5c-0.1-0.1-1.7-3.2-6.7-3.2c-4.9,0-6.6,3.1-6.7,3.2
			c-0.2,0.5-0.8,0.6-1.3,0.4c-0.5-0.2-0.6-0.8-0.4-1.3c0.1-0.2,2.2-4.3,8.3-4.3c6.1,0,8.2,4.1,8.3,4.3
			C105.8,618,105.6,618.6,105.1,618.8L105.1,618.8z"/>
	</g>
</g>
<g id="Dropdown-Diary_3_">
	<g id="Portrait_3_" transform="translate(-480.000000, -577.000000)">
		<path class="st6" d="M962.1,595.5c-8.3,0-15,6.7-15,15c0,8.3,6.7,15,15,15c8.3,0,15-6.7,15-15
			C977.1,602.2,970.4,595.5,962.1,595.5L962.1,595.5z M957.1,604.6c1.1,0,2,0.9,2,2c0,1.1-0.9,2-2,2c-1.1,0-2-0.9-2-2
			C955.1,605.5,956,604.6,957.1,604.6L957.1,604.6z M968.1,604.6c1.1,0,2,0.9,2,2c0,1.1-0.9,2-2,2c-1.1,0-2-0.9-2-2
			C966.1,605.5,967,604.6,968.1,604.6L968.1,604.6z M962.6,620.6c-4.4,0-9.5-4-9.5-8h19C972.1,616.6,967,620.6,962.6,620.6
			L962.6,620.6z"/>
	</g>
</g>
</svg>
